<?xml version="1.0" encoding="UTF-8" standalone="no"?>
<svg xmlns="http://www.w3.org/2000/svg" viewBox="0 0 9124 9124" width="512" height="512">
	<g transform="translate(-479, -309) scale(1.5)">
		<path d="m1980.6666,6282.5501 c-94.8384,-7.6573 -229.2993,-46.0739 -346,-98.8547 -129.9789,-58.7861 -256.5297,-145.0946 -437.3333,-298.2645 -256.42366,-217.2321 -461.44504,-426.1444 -604.62321,-616.0977 -91.66817,-121.6153 -146.26771,-217.1081 -169.24283,-296 -15.37599,-52.798 -19.10714,-74.3439 -16.78495,-96.9267 3.68421,-35.8281 9.89419,-52.4316 32.60981,-87.1874 18.22743,-27.8888 32.07325,-43.0523 56.70787,-62.1042 22.98592,-17.7768 34.56794,-24.3829 138.66666,-79.0923 93.3528,-49.0619 121.16748,-63.8876 192.66666,-102.6955 110.36104,-59.9009 218.30379,-116.6567 413.33329,-217.328 202.8055,-104.6853 227.521,-118.086 292,-158.3231 43.5143,-27.1542 76.2382,-50.7526 103.9243,-74.9433 10.2111,-8.9219 13.07,-12.2271 14.3611,-16.6028 3.0462,-10.3243 1.972,-95.2503 -2.0339,-160.7967 -1.9496,-31.9 -4.7676,-79.9 -6.2621,-106.6666 -1.4946,-26.7667 -5.0906,-89.1667 -7.9912,-138.6667 -13.7686,-234.9652 -16.7936,-316.804 -15.5739,-421.3333 0.9877,-84.6532 4.1877,-135.4677 12.3428,-196 18.2011,-135.1001 60.9217,-288.8452 111.3319,-400.6667 46.6404,-103.4592 118.4245,-208.3594 215.7649,-315.3034 21.7289,-23.8726 96.5506,-98.273 124.8028,-124.0999 160.1582,-146.4096 313.0929,-261.1393 464.449,-348.4237 103.0884,-59.4492 222.5198,-116.4927 271.1448,-129.5056 6.7128,-1.7964 12.6075,-3.7315 13.0994,-4.3001 0.4918,-0.5687 7.2277,-9.4339 14.9686,-19.7006 33.5859,-44.5442 65.9279,-80.4358 131.5888,-146.031 88.9212,-88.8322 193.9696,-180.8694 333.416,-292.1197 235.7756,-188.1016 417.3716,-307.40822 702,-461.20649 58.1188,-31.40434 186.0685,-96.20768 252.9471,-128.11136 107.6437,-51.35019 222.6929,-102.48436 323.0529,-143.58229 188.6034,-77.2341 436.4438,-166.03902 599.3333,-214.7501 155.6821,-46.55577 357.0913,-90.12359 496.6667,-107.43643 53.5378,-6.64078 87.2954,-8.76932 138.6438,-8.74194 87.4742,0.0467 134.4464,7.67004 155.5698,25.24825 9.8569,8.20264 13.1753,22.60704 7.8897,34.24713 -6.9808,15.3732 -25.4839,28.81163 -130.1033,94.49093 -151.2366,94.94522 -244.7734,161.63617 -350.6667,250.02238 -63.4455,52.95622 -98.3659,84.69006 -211.9811,192.63733 -30.1016,28.6 -80.8201,76.29752 -112.7078,105.99449 -129.5806,120.678 -189.9342,181.8387 -301.0034,305.0285 -79.4444,88.1139 -138.3733,157.5725 -267.7933,315.6437 -101.9314,124.4972 -127.4537,157.191 -168.7784,216.2044 -24.3674,34.7977 -78.4026,116.8028 -78.4026,118.9856 0,0.8485 1.6304,2.1625 3.6232,2.9201 6.0672,2.3068 45.1918,22.1375 55.4273,28.094 15.9783,9.2984 43.3663,27.4581 59.6161,39.5289 48.6538,36.1412 125.8796,103.5393 178.6455,155.9111 17.9549,17.8209 33.338,32.1358 34.1844,31.811 0.8465,-0.3248 10.156,-6.116 20.6878,-12.8693 56.9938,-36.5459 137.5763,-85.9179 183.8156,-112.6217 36.1491,-20.8767 42.4331,-24.4512 66,-37.5429 72.6964,-40.3838 138.1986,-74.0935 212.8572,-109.544 152.1764,-72.2586 324.0232,-142.8172 460.205,-188.9559 152.1949,-51.5639 342.5801,-100.2816 486.2711,-124.4319 43.5063,-7.3121 55.0467,-8.5876 78,-8.6206 53.0206,-0.076 92.7902,18.2869 104.9608,48.4645 2.513,6.2307 2.9414,9.7391 2.8492,23.3333 -0.091,13.3159 -0.7117,18.0132 -3.7046,28 -8.3478,27.8538 -25.1615,64.2134 -60.7328,131.3334 -13.7967,26.0333 -40.0704,76.1333 -58.386,111.3333 -18.3156,35.2 -44.4062,85.3 -57.9791,111.3333 -76.0384,145.8447 -129.7631,250.612 -146.319,285.3333 -15.3342,32.1588 -15.2927,32.0647 -67.3636,153.3334 -22.1992,51.7 -54.1587,126.1 -71.0211,165.3333 -59.4507,138.322 -77.6483,187.1937 -123.5763,331.8785 -27.0156,85.1062 -48.1237,158.14 -69.3994,240.1215 -23.9856,92.4225 -29.3235,111.5933 -57.4764,206.4233 -9.866,33.2328 -24.2284,82.6165 -31.9162,109.7417 -12.7278,44.9079 -45.9314,158.1163 -57.4376,195.835 -23.4284,76.801 -42.7116,122.6785 -63.4493,150.955 -13.6943,18.6724 -34.6979,34.6294 -56.8556,43.1946 l-9.8072,3.791 0.6781,6.0296 c0.3731,3.3164 1.9284,13.2298 3.4564,22.0298 9.3042,53.5828 10.8303,143.1241 3.409,200 -8.6432,66.2402 -33.9028,155.569 -64.1303,226.7924 -29.4503,69.3918 -76.3944,150.5706 -122.7795,212.3184 -55.734,74.1929 -114.9069,131.1225 -227.6861,219.0542 -65.3585,50.9588 -111.3684,84.1148 -253.3333,182.5588 -46.9334,32.5455 -101.2333,70.2101 -120.6667,83.6993 -123.7926,85.9279 -242.1821,161.2348 -342.3556,217.771 -39.294,22.1768 -51.8153,29.5265 -88.311,51.837 -37.797,23.106 -113.0987,68.1723 -148,88.5746 -17.2334,10.0741 -36.7334,21.4794 -43.3334,25.3453 -32.8776,19.2575 -140.6034,80.0843 -181.3333,102.3888 -164.5988,90.1379 -277.8763,149.2476 -483.3333,252.2097 -202.6592,101.56 -392.5753,193.7704 -544.6667,264.4532 -154.7648,71.9253 -311.4808,138.4541 -432.9162,183.7812 -117.4978,43.8572 -198.8655,65.3383 -269.4898,71.1455 -19.335,1.5898 -62.9674,1.5657 -82.9273,-0.045 z"
			fill="#CE8129" />
		<path d="m1979.5062,6279.9622 c-99.1132,-8.8229 -231.7288,-47.2856 -350.4838,-101.651 -136.1398,-62.3242 -272.2706,-157.961 -477.6196,-335.5451 C1047.8002,5753.1715 972.46898,5683.3235 884.63311,5595.4137 725.89558,5436.5429 611.25794,5300.5461 523.30032,5166.7579 479.04373,5099.4413 445.0846,5034.026 430.15526,4987.3332 c-4.71308,-14.7405 -15.72115,-55.466 -18.38039,-68 -5.12581,-24.16 -3.3514,-56.5821 4.41479,-80.6667 9.96957,-30.9177 42.95597,-76.8029 73.47109,-102.2006 25.46734,-21.1966 35.22496,-26.8658 151.47678,-88.0101 95.17053,-50.0563 117.60814,-62.0287 189.52912,-101.1294 104.43154,-56.7754 224.87715,-120.0262 436.66665,-229.3112 150.2181,-77.5136 191.5245,-99.7116 240.8192,-129.4158 32.158,-19.378 74.1137,-47.1152 95.1808,-62.925 19.0348,-14.2845 45.2863,-36.6792 48.1888,-41.1089 3.1169,-4.7569 4.8771,-38.4315 3.9671,-75.8989 -0.7816,-32.1846 -4.002,-91.5907 -17.4911,-322.6667 -7.0184,-120.23 -10.9567,-194.3724 -14.0585,-264.6667 -2.3227,-52.6372 -3.1683,-189.2089 -1.42,-229.3333 3.3665,-77.2614 9.5964,-135.2716 21.6216,-201.3333 21.211,-116.5241 60.329,-246.5371 101.0482,-335.8447 81.2418,-178.1837 224.461,-347.4456 458.8105,-542.239 138.3835,-115.0255 259.9672,-198.8007 396,-272.8569 88.1798,-48.005 183.809,-91.6535 221.4522,-101.0784 l11.452,-2.8674 7.8813,-10.8797 c78.3057,-108.0973 240.5297,-262.3533 465.8812,-442.9986 269.6758,-216.1762 509.1422,-368.12918 850.6666,-539.78885 244.308,-122.796 466.5016,-217.36097 742.9341,-316.19058 246.6035,-88.16523 392.6775,-130.7025 579.0659,-168.62602 122.0563,-24.83418 212.1796,-38.27432 286.4691,-42.72126 34.1517,-2.0443 115.9296,-0.92814 140.8642,1.9226 39.1422,4.4751 59.4516,10.74479 72.816,22.4789 6.1588,5.40741 8.5174,10.96033 8.5174,20.05277 0,17.36312 -14.7778,29.90381 -94.6667,80.33649 -102.2817,64.56891 -140.5012,89.26692 -181.3333,117.18071 -97.4615,66.62681 -191.686,140.83397 -285.7086,225.01155 -30.832,27.60363 -65.0966,59.58877 -128.9132,120.33681 -24.5913,23.40893 -66.3013,62.70893 -92.6888,87.33333 -26.3876,24.62439 -62.3876,58.24829 -80,74.71979 C5005.8055,1075.13 4860.4237,1232.5286 4712.6917,1410 c-50.7967,61.0225 -171.2378,208.2726 -194.6685,238 -23.9145,30.3412 -56.1177,73.5232 -76.0668,102 -24.4585,34.9138 -77.9565,116.8509 -77.9565,119.3974 0,1.6106 6.1121,5.2516 21,12.51 56.2599,27.4286 99.6307,57.224 165.6667,113.8119 40.9318,35.0756 73.0517,64.1045 102.6493,92.771 23.3136,22.5803 30.2478,29.818 40.0448,41.7974 0.7292,0.8914 2.3281,1.2362 3.5534,0.7661 1.2252,-0.4701 14.5707,-8.7425 29.6567,-18.3831 87.176,-55.7086 182.4165,-112.6818 254.0957,-152.001 11.7334,-6.4361 27.1024,-14.8712 34.1536,-18.7443 7.0511,-3.8732 34.3511,-18.176 60.6667,-31.784 167.1189,-86.4186 396.4684,-184.2085 567.8464,-242.1178 167.2975,-56.5304 384.81,-110.5683 524,-130.1803 21.7874,-3.0699 56.2874,-3.1233 71.4586,-0.1107 39.6154,7.8666 63.3462,24.0031 70.7554,48.1124 5.3382,17.37 1.881,39.7034 -11.2726,72.8216 -7.3953,18.6202 -32.4092,69.0023 -61.8948,124.6667 -13.2072,24.9333 -37.076,70.5333 -53.0417,101.3333 -15.9656,30.8 -34.5688,66.5 -41.3403,79.3334 -6.7716,12.8333 -25.9673,49.7333 -42.6573,81.9999 -16.69,32.2667 -38.6087,74.5667 -48.7081,94 -29.9379,57.6066 -72.2236,141.9594 -81.2099,162 -4.6037,10.2667 -27.4426,63.0667 -50.7533,117.3334 -23.3107,54.2666 -56.1784,130.7666 -73.0392,170 -57.7664,134.4156 -74.0839,177.6981 -115.1104,305.3333 -35.3724,110.0447 -52.5348,169.164 -83.0859,286.2061 -18.9522,72.6071 -27.9473,104.661 -53.5582,190.8545 -9.8792,33.249 -24.2014,82.4622 -31.8268,109.3627 -15.6735,55.2913 -49.8607,171.0035 -62.7904,212.5236 -22.9208,73.6047 -45.2612,120.4404 -68.5922,143.8009 -13.0552,13.0718 -31.8884,24.9892 -46.3114,29.3054 -9.82,2.9386 -10.2554,4.1569 -7.195,20.1357 11.2656,58.8219 13.8647,148.2487 6.0786,209.1444 -12.1091,94.704 -49.9382,210.3129 -98.6494,301.4805 -73.5668,137.6871 -144.942,222.206 -277.9224,329.1013 -74.7982,60.126 -130.7214,101.181 -258,189.4058 -37.4,25.9244 -92.4527,64.1476 -122.3394,84.9405 -146.9661,102.2484 -253.0648,170.4611 -362.9939,233.3752 -36.6618,20.9821 -60.2164,34.9905 -102.6666,61.0585 -65.4192,40.1727 -177.0638,106.0002 -248.6667,146.618 -54.5815,30.9622 -59.1384,33.5276 -84.9157,47.8078 -185.1239,102.5552 -373.6043,200.4998 -625.7509,325.1742 -415.2046,205.2987 -654.7518,313.8829 -870.3063,394.5008 -102.1288,38.1965 -176.6825,59.1508 -241.6937,67.9312 -23.4222,3.1633 -86.5579,4.64 -109.8271,2.5685 zm709.8271,-1708.0316 c64.7068,-3.9775 133.701,-13.4007 191.3333,-26.1322 118.7187,-26.2261 230.3276,-83.2953 300.6928,-153.7537 35.0384,-35.0848 75.2551,-88.7771 103.898,-138.7115 11.3913,-19.8592 57.1713,-110.934 67.67,-134.623 49.9384,-112.68 78.847,-230.9759 87.6604,-358.7103 8.0928,-117.29 1.3492,-210.9819 -22.6718,-314.9899 -8.9484,-38.7457 -27.1224,-96.7254 -48.0866,-153.4097 -8.9724,-24.2601 -11.8739,-30.267 -14.6196,-30.267 -1.138,0 -25.2759,15.2116 -53.6395,33.8036 -28.3637,18.592 -217.1704,142.2471 -419.5704,274.7891 -269.8377,176.7039 -370.134,243.0539 -376,248.7392 -4.4,4.2646 -13.1,11.0315 -19.3333,15.0378 -6.2333,4.0061 -41.3333,26.4638 -78,49.9058 -165.6117,105.8803 -251.7847,161.6363 -439.3333,284.259 -30.2284,19.764 -51.4893,34.502 -51.7128,35.8474 -2.5629,15.4318 45.5325,78.973 92.6676,122.4275 35.076,32.3372 88.2194,73.7009 131.6178,102.4435 67.0366,44.398 143.5148,81.7321 218.7607,106.7917 70.136,23.3577 129.9487,34.5609 202.6667,37.9601 27.7608,1.2978 94.0349,0.5575 126,-1.4074 z"
			fill="#181818" stroke="#181818" stroke-width="13.3333" />
	</g>
</svg>
